<?xml version="1.0" encoding="utf-8"?>
<!-- Generator: Adobe Illustrator 15.0.0, SVG Export Plug-In . SVG Version: 6.00 Build 0)  -->
<!DOCTYPE svg PUBLIC "-//W3C//DTD SVG 1.1//EN" "http://www.w3.org/Graphics/SVG/1.1/DTD/svg11.dtd">
<svg version="1.1" id="Layer_1" xmlns="http://www.w3.org/2000/svg" xmlns:xlink="http://www.w3.org/1999/xlink" x="0px" y="0px"
	 width="661.521px" height="525.018px" viewBox="0 0 661.521 525.018" enable-background="new 0 0 661.521 525.018"
	 xml:space="preserve">
<g id="Outline">
	<g>
		<path fill="none" stroke="#FFFFFF" stroke-width="8" stroke-linecap="round" stroke-miterlimit="10" d="M504.068,334.535
			l5.049,5.047c7.774,7.777,7.774,20.506,0,28.285L366.989,509.995c-7.777,7.779-20.508,7.779-28.285,0L14.142,185.435
			c-7.778-7.778-7.778-20.506,0-28.284L156.271,15.022c7.778-7.778,20.506-7.778,28.284,0l146.846,146.846"/>
	</g>
</g>
<g id="Outline_1_">
	<g>
		<path fill="#FFFFFF" d="M365.575,456.107c-7.082,7.078-18.673,7.078-25.755,0L210.41,326.695c-7.083-7.082-7.083-18.672,0-25.754
			L497.885,13.464c7.082-7.083,18.674-7.083,25.753,0L653.05,142.876c7.081,7.082,7.081,18.671,0,25.753L365.575,456.107z"/>
	</g>
</g>
</svg>
