<?xml version="1.0" encoding="utf-8"?>
<!-- Generator: Adobe Illustrator 15.0.0, SVG Export Plug-In . SVG Version: 6.00 Build 0)  -->
<!DOCTYPE svg PUBLIC "-//W3C//DTD SVG 1.1//EN" "http://www.w3.org/Graphics/SVG/1.1/DTD/svg11.dtd">
<svg version="1.1" id="Layer_1" xmlns="http://www.w3.org/2000/svg" xmlns:xlink="http://www.w3.org/1999/xlink" x="0px" y="0px"
	 width="580.711px" height="580.359px" viewBox="0 0 580.711 580.359" enable-background="new 0 0 580.711 580.359"
	 xml:space="preserve">
<g id="Box">
	<g>
		<path fill="#FFFFFF" d="M362.215,451.134c-7.777,7.777-20.506,7.777-28.284,0L129.577,246.78c-7.778-7.778-7.778-20.506,0-28.284
			L333.931,14.142c7.778-7.778,20.507-7.778,28.284,0l204.355,204.354c7.777,7.778,7.777,20.506,0,28.284L362.215,451.134z"/>
	</g>
</g>
<g id="Outline">
	<g>
		<path fill="none" stroke="#FFFFFF" stroke-width="8" stroke-linecap="round" stroke-miterlimit="10" d="M476.761,363.446
			l32.356,32.356c7.777,7.777,7.777,20.506,0,28.285L366.989,566.214c-7.777,7.779-20.507,7.779-28.285,0L14.142,241.654
			c-7.778-7.778-7.778-20.506,0-28.284L156.271,71.241c7.778-7.778,20.506-7.778,28.284,0l33.539,33.539"/>
	</g>
</g>
</svg>
